{
  "accessors": [
    {
      "bufferView": 2,
      "componentType": 5126,
      "count": 244,
      "max": [
        1.0,
        0.14236000180244446,
        -0.27501600980758667
      ],
      "min": [
        -1.0,
        -0.14236000180244446,
        -0.5618450045585632
      ],
      "type": "VEC3"
    },
    {
      "bufferView": 2,
      "byteOffset": 2928,
      "componentType": 5126,
      "count": 244,
      "max": [
        1.0,
        1.0,
        1.0
      ],
      "min": [
        -1.0,
        -1.0,
        -1.0
      ],
      "type": "VEC3"
    },
    {
      "bufferView": 3,
      "componentType": 5126,
      "count": 244,
      "max": [
        1.0,
        0.31997519731521606,
        1.0,
        1.0
      ],
      "min": [
        -1.0,
        -0.3199745714664459,
        -1.0,
        1.0
      ],
      "type": "VEC4"
    },
    {
      "bufferView": 1,
      "componentType": 5126,
      "count": 244,
      "max": [
        0.997081995010376,
        0.9835969805717468
      ],
      "min": [
        0.4571070075035095,
        0.1659349948167801
      ],
      "type": "VEC2"
    },
    {
      "bufferView": 0,
      "componentType": 5125,
      "count": 732,
      "type": "SCALAR"
    },
    {
      "bufferView": 2,
      "byteOffset": 5856,
      "componentType": 5126,
      "count": 667,
      "max": [
        0.7140610218048096,
        0.08295170217752457,
        0.25517401099205017
      ],
      "min": [
        0.28449898958206177,
        -0.08375140279531479,
        -0.17438900470733643
      ],
      "type": "VEC3"
    },
    {
      "bufferView": 2,
      "byteOffset": 13860,
      "componentType": 5126,
      "count": 667,
      "max": [
        1.0,
        1.0,
        1.0
      ],
      "min": [
        -1.0,
        -1.0,
        -1.0
      ],
      "type": "VEC3"
    },
    {
      "bufferView": 3,
      "byteOffset": 3904,
      "componentType": 5126,
      "count": 667,
      "max": [
        1.0,
        0.9986345171928406,
        1.0,
        1.0
      ],
      "min": [
        -1.0,
        -0.9989562034606934,
        -1.0,
        1.0
      ],
      "type": "VEC4"
    },
    {
      "bufferView": 1,
      "byteOffset": 1952,
      "componentType": 5126,
      "count": 667,
      "max": [
        0.7244319915771484,
        0.2397720068693161
      ],
      "min": [
        0.1338459998369217,
        0.013321000151336193
      ],
      "type": "VEC2"
    },
    {
      "bufferView": 0,
      "byteOffset": 2928,
      "componentType": 5125,
      "count": 2148,
      "type": "SCALAR"
    },
    {
      "bufferView": 2,
      "byteOffset": 21864,
      "componentType": 5126,
      "count": 1251,
      "max": [
        -0.09358599781990051,
        0.10442899912595749,
        0.4619179964065552
      ],
      "min": [
        -0.9281550049781799,
        -0.1052279993891716,
        -0.37264999747276306
      ],
      "type": "VEC3"
    },
    {
      "bufferView": 2,
      "byteOffset": 36876,
      "componentType": 5126,
      "count": 1251,
      "max": [
        1.0,
        1.0,
        1.0
      ],
      "min": [
        -1.0,
        -1.0,
        -1.0
      ],
      "type": "VEC3"
    },
    {
      "bufferView": 3,
      "byteOffset": 14576,
      "componentType": 5126,
      "count": 1251,
      "max": [
        1.0,
        0.996604859828949,
        1.0,
        1.0
      ],
      "min": [
        -1.0,
        -0.996701717376709,
        -1.0,
        1.0
      ],
      "type": "VEC4"
    },
    {
      "bufferView": 1,
      "byteOffset": 7288,
      "componentType": 5126,
      "count": 1251,
      "max": [
        0.9876710176467896,
        0.8851109743118286
      ],
      "min": [
        0.026333000510931015,
        0.013729000464081764
      ],
      "type": "VEC2"
    },
    {
      "bufferView": 0,
      "byteOffset": 11520,
      "componentType": 5125,
      "count": 4164,
      "type": "SCALAR"
    },
    {
      "bufferView": 2,
      "byteOffset": 51888,
      "componentType": 5126,
      "count": 1171,
      "max": [
        0.9965360164642334,
        0.13297699391841888,
        0.5618450045585632
      ],
      "min": [
        -0.9987660050392151,
        -0.13165399432182312,
        -0.5399760007858276
      ],
      "type": "VEC3"
    },
    {
      "bufferView": 2,
      "byteOffset": 65940,
      "componentType": 5126,
      "count": 1171,
      "max": [
        1.0,
        1.0,
        1.0
      ],
      "min": [
        -1.0,
        -1.0,
        -1.0
      ],
      "type": "VEC3"
    },
    {
      "bufferView": 3,
      "byteOffset": 34592,
      "componentType": 5126,
      "count": 1171,
      "max": [
        1.0,
        0.99952632188797,
        1.0,
        1.0
      ],
      "min": [
        -1.0,
        -0.9982222318649292,
        -1.0,
        1.0
      ],
      "type": "VEC4"
    },
    {
      "bufferView": 1,
      "byteOffset": 17296,
      "componentType": 5126,
      "count": 1171,
      "max": [
        0.9893580079078674,
        0.9836999773979187
      ],
      "min": [
        0.014069999568164349,
        0.010990999639034271
      ],
      "type": "VEC2"
    },
    {
      "bufferView": 0,
      "byteOffset": 28176,
      "componentType": 5125,
      "count": 3963,
      "type": "SCALAR"
    }
  ],
  "asset": {
    "extras": {
      "author": "Terizmeh (https://sketchfab.com/Terizmeh)",
      "license": "CC-BY-4.0 (http://creativecommons.org/licenses/by/4.0/)",
      "source": "https://sketchfab.com/3d-models/vhs-c11a8596c3314677a8b9321e141de275",
      "title": "VHS"
    },
    "generator": "Sketchfab-12.68.0",
    "version": "2.0"
  },
  "bufferViews": [
    {
      "buffer": 0,
      "byteLength": 44028,
      "name": "floatBufferViews",
      "target": 34963
    },
    {
      "buffer": 0,
      "byteLength": 26664,
      "byteOffset": 44028,
      "byteStride": 8,
      "name": "floatBufferViews",
      "target": 34962
    },
    {
      "buffer": 0,
      "byteLength": 79992,
      "byteOffset": 70692,
      "byteStride": 12,
      "name": "floatBufferViews",
      "target": 34962
    },
    {
      "buffer": 0,
      "byteLength": 53328,
      "byteOffset": 150684,
      "byteStride": 16,
      "name": "floatBufferViews",
      "target": 34962
    }
  ],
  "buffers": [
    {
      "byteLength": 204012,
      "uri": "scene.bin"
    }
  ],
  "images": [
    {
      "uri": "textures/None_baseColor.png"
    },
    {
      "uri": "textures/None_metallicRoughness.png"
    },
    {
      "uri": "textures/None_normal.png"
    }
  ],
  "materials": [
    {
      "alphaMode": "BLEND",
      "doubleSided": true,
      "name": "None",
      "normalTexture": {
        "index": 2
      },
      "occlusionTexture": {
        "index": 1
      },
      "pbrMetallicRoughness": {
        "baseColorTexture": {
          "index": 0
        },
        "metallicRoughnessTexture": {
          "index": 1
        }
      }
    }
  ],
  "meshes": [
    {
      "name": "defaultMaterial",
      "primitives": [
        {
          "attributes": {
            "NORMAL": 1,
            "POSITION": 0,
            "TANGENT": 2,
            "TEXCOORD_0": 3
          },
          "indices": 4,
          "material": 0,
          "mode": 4
        }
      ]
    },
    {
      "name": "defaultMaterial",
      "primitives": [
        {
          "attributes": {
            "NORMAL": 6,
            "POSITION": 5,
            "TANGENT": 7,
            "TEXCOORD_0": 8
          },
          "indices": 9,
          "material": 0,
          "mode": 4
        }
      ]
    },
    {
      "name": "defaultMaterial",
      "primitives": [
        {
          "attributes": {
            "NORMAL": 11,
            "POSITION": 10,
            "TANGENT": 12,
            "TEXCOORD_0": 13
          },
          "indices": 14,
          "material": 0,
          "mode": 4
        }
      ]
    },
    {
      "name": "defaultMaterial",
      "primitives": [
        {
          "attributes": {
            "NORMAL": 16,
            "POSITION": 15,
            "TANGENT": 17,
            "TEXCOORD_0": 18
          },
          "indices": 19,
          "material": 0,
          "mode": 4
        }
      ]
    }
  ],
  "nodes": [
    {
      "children": [
        1
      ],
      "matrix": [
        1.0,
        0.0,
        0.0,
        0.0,
        0.0,
        2.220446049250313e-16,
        -1.0,
        0.0,
        0.0,
        1.0,
        2.220446049250313e-16,
        0.0,
        0.0,
        0.0,
        0.0,
        1.0
      ],
      "name": "Sketchfab_model"
    },
    {
      "children": [
        2,
        4,
        6,
        8
      ],
      "matrix": [
        1.0,
        0.0,
        0.0,
        0.0,
        0.0,
        -4.371139006309477e-08,
        0.999999999999999,
        0.0,
        0.0,
        -0.999999999999999,
        -4.371139006309477e-08,
        0.0,
        0.0,
        0.0,
        0.0,
        1.0
      ],
      "name": "Collada visual scene group"
    },
    {
      "children": [
        3
      ],
      "name": "VHS_Flip_Plane.001"
    },
    {
      "mesh": 0,
      "name": "defaultMaterial"
    },
    {
      "children": [
        5
      ],
      "name": "VHS_RecieverReel_Cylinder.001"
    },
    {
      "mesh": 1,
      "name": "defaultMaterial"
    },
    {
      "children": [
        7
      ],
      "name": "VHS_SupplyReel_Cylinder"
    },
    {
      "mesh": 2,
      "name": "defaultMaterial"
    },
    {
      "children": [
        9
      ],
      "name": "VHS_Body_Circle"
    },
    {
      "mesh": 3,
      "name": "defaultMaterial"
    }
  ],
  "samplers": [
    {
      "magFilter": 9729,
      "minFilter": 9987,
      "wrapS": 10497,
      "wrapT": 10497
    }
  ],
  "scene": 0,
  "scenes": [
    {
      "name": "Sketchfab_Scene",
      "nodes": [
        0
      ]
    }
  ],
  "textures": [
    {
      "sampler": 0,
      "source": 0
    },
    {
      "sampler": 0,
      "source": 1
    },
    {
      "sampler": 0,
      "source": 2
    }
  ]
}
